<svg width="24" height="24" viewBox="0 0 24 24" fill="none" xmlns="http://www.w3.org/2000/svg">
<g clip-path="url(#clip0_491_10407)">
<path fill-rule="evenodd" clip-rule="evenodd" d="M21.0903 5.5695C21.2703 3.963 20.9508 2.8215 20.0373 1.7805C18.9423 0.534 16.9683 0 14.4393 0H7.10133C6.85153 0.000108174 6.60995 0.0892713 6.41998 0.251477C6.23 0.413682 6.10408 0.638303 6.06483 0.885L3.00783 20.2635C2.99351 20.3535 2.99888 20.4455 3.02358 20.5333C3.04828 20.621 3.09172 20.7023 3.1509 20.7716C3.21008 20.8409 3.28359 20.8965 3.36636 20.9347C3.44913 20.9728 3.53919 20.9925 3.63033 20.9925H7.76433L7.46133 22.9125C7.44009 23.0469 7.44823 23.1844 7.4852 23.3153C7.52216 23.4463 7.58707 23.5677 7.67545 23.6712C7.76384 23.7747 7.8736 23.8579 7.99718 23.9149C8.12076 23.9719 8.25523 24.0014 8.39133 24.0015H12.2103C12.8538 24.0015 13.3998 23.5365 13.5033 22.905L13.5408 22.71L14.2608 18.1455L14.3058 17.8995L14.3073 17.889C14.3267 17.7646 14.39 17.6513 14.4858 17.5695C14.5815 17.4878 14.7034 17.4431 14.8293 17.4435H15.3993C17.2983 17.4435 19.0368 17.0595 20.4168 16.0785C20.9853 15.6735 21.4848 15.174 21.9063 14.571C22.6063 13.5965 23.0593 12.4667 23.2263 11.2785C23.5893 9.4095 23.4213 7.7445 22.3713 6.5475C22.0477 6.18632 21.6615 5.88651 21.2313 5.6625L21.0903 5.571V5.5695ZM9.81483 13.23L8.54733 21.0495V21.051L8.23533 23.031C8.22033 23.13 8.29533 23.2155 8.39283 23.2155H12.2103C12.4698 23.2155 12.6903 23.028 12.7323 22.7715V22.764L12.7713 22.5705L13.4913 18.006L13.5363 17.76C13.5859 17.4528 13.7432 17.1732 13.9802 16.9715C14.2171 16.7697 14.5181 16.659 14.8293 16.659H15.3993C17.2008 16.659 18.7593 16.293 19.9638 15.4365C21.1593 14.586 22.0488 13.221 22.4583 11.1255C22.8018 9.363 22.6023 7.995 21.7833 7.0605C21.5476 6.79749 21.2698 6.57547 20.9613 6.4035L20.9568 6.4275C19.9893 11.3955 16.6773 13.1115 12.4488 13.1115H10.2963C10.1286 13.1117 9.96346 13.1523 9.81483 13.23Z" fill="black"/>
</g>
<defs>
<clipPath id="clip0_491_10407">
<rect width="24" height="24" fill="white"/>
</clipPath>
</defs>
</svg>
