<svg width="40" height="40" viewBox="0 0 24 24" fill="none" xmlns="http://www.w3.org/2000/svg">
<path d="M16.2018 13.9737C15.1018 13.8737 14.5018 15.3737 13.7018 15.7737C12.4018 16.4737 10.0018 13.9737 10.0018 13.9737C10.0018 13.9737 7.50184 11.5737 8.10184 10.2737C8.60184 9.47372 10.1018 8.87372 10.0018 7.77372C9.90184 6.77372 7.70184 3.17372 6.60184 4.17372C4.20184 6.37372 4.00184 7.27372 4.00184 9.07372C3.90184 12.1737 7.90184 16.0737 7.90184 16.0737C8.30184 16.4737 11.8018 20.0737 14.9018 19.9737C16.7018 19.9737 17.6018 19.7737 19.8018 17.3737C20.8018 16.2737 17.3018 14.0737 16.2018 13.9737V13.9737Z" fill="#7879F1"/>
</svg>
